<svg width="80" height="80" viewBox="0 0 80 80" fill="none" xmlns="http://www.w3.org/2000/svg">
  <path d="M36.6377 20.2978C34.0738 17.9907 30.7399 16.7051 27.2734 16.7051C23.5604 16.7051 19.9995 18.1801 17.3739 20.8056C14.7484 23.4311 13.2734 26.992 13.2734 30.7051C13.2734 34.4181 14.7484 37.9791 17.3739 40.6046L38.5871 61.8178C39.3682 62.5988 40.6345 62.5988 41.4156 61.8178L62.6288 40.6046C65.2543 37.9791 66.7293 34.4181 66.7293 30.7051C66.7293 26.992 65.2543 23.4311 62.6288 20.8056C60.0033 18.1801 56.4423 16.7051 52.7293 16.7051C50.9007 16.7051 49.109 17.0628 47.4478 17.7395" stroke="#C2CCDE" stroke-linecap="round" stroke-linejoin="round" />
  <path d="M36.6373 20.298L32.6189 30.1918C32.3926 30.7489 32.7057 31.3784 33.2865 31.534L39.9611 33.3224C40.5647 33.4842 40.8738 34.1538 40.6052 34.7181L34.5576 47.4238C34.3913 47.7733 34.8634 48.0705 35.1066 47.7694L49.2226 30.2938C49.6772 29.731 49.4023 28.8867 48.7035 28.6995L42.8846 27.1403C42.7149 27.0948 42.6311 26.9037 42.7127 26.7481L47.4474 17.7397" stroke="#C2CCDE" stroke-linecap="round" stroke-linejoin="round" />
</svg>