<svg width="80" height="80" viewBox="0 0 80 80" fill="none" xmlns="http://www.w3.org/2000/svg">
  <path fill-rule="evenodd" clip-rule="evenodd" d="M13.002 30.5542C13.002 26.8412 14.4769 23.2802 17.1025 20.6547C19.728 18.0292 23.2889 16.5542 27.002 16.5542C30.4684 16.5542 33.8023 17.8398 36.3662 20.1469L32.3478 30.0407C32.1215 30.5978 32.4346 31.2273 33.0154 31.3829L37.726 32.6451L39.0793 33.0077L39.69 33.1713C40.2937 33.3331 40.6027 34.0028 40.3341 34.567L34.2865 47.2727C34.1202 47.6222 34.5923 47.9194 34.8355 47.6183L48.9515 30.1427C49.4061 29.5799 49.1312 28.7356 48.4325 28.5484L45.2353 27.6917L43.7908 27.3047L42.6135 26.9892C42.4438 26.9437 42.36 26.7526 42.4416 26.597L46.9434 18.0138C47.007 17.8926 47.0431 17.7655 47.0544 17.639C48.7498 16.9297 50.5844 16.5542 52.4578 16.5542C56.1708 16.5542 59.7318 18.0292 62.3573 20.6547C64.9828 23.2802 66.4578 26.8412 66.4578 30.5542C66.4578 34.2672 64.9828 37.8282 62.3573 40.4537L48.2152 54.5958L41.1441 61.6669C40.363 62.4479 39.0967 62.4479 38.3157 61.6669L31.2446 54.5958L17.1025 40.4537C14.477 37.8282 13.002 34.2672 13.002 30.5542Z" fill="#cc99ff" />
</svg>