<svg width="80" height="80" viewBox="0 0 80 80" fill="none" xmlns="http://www.w3.org/2000/svg">
  <path d="M40 23.2292C39.75 23.2291 39.5001 23.1337 39.3094 22.943L37.172 20.8056C34.5464 18.1801 30.9855 16.7051 27.2725 16.7051C23.5594 16.7051 19.9985 18.1801 17.373 20.8056C14.7475 23.4311 13.2725 26.992 13.2725 30.7051C13.2725 34.4181 14.7475 37.9791 17.373 40.6046L24.104 47.3356" stroke="#C2CCDE" stroke-linecap="round" stroke-linejoin="round" />
  <path d="M26 37L27.6971 47.3029L38 49L27.6971 50.6971L26 61L24.3029 50.6971L14 49L24.3029 47.3029L26 37Z" stroke="#C2CCDE" stroke-linecap="round" stroke-linejoin="round" />
  <path d="M39.9996 62.4035C39.4879 62.4034 38.9762 62.2082 38.5858 61.8177L27.6641 50.896" stroke="#C2CCDE" stroke-linecap="round" stroke-linejoin="round" />
  <path d="M40 23.2292C40.2502 23.2293 40.5005 23.1339 40.6914 22.943L42.8288 20.8056C45.4543 18.1801 49.0153 16.7051 52.7283 16.7051C56.4413 16.7051 60.0023 18.1801 62.6278 20.8056C65.2533 23.4311 66.7283 26.992 66.7283 30.7051C66.7283 34.4181 65.2533 37.9791 62.6278 40.6046L41.4146 61.8178C41.024 62.2084 40.512 62.4037 40 62.4036" stroke="#C2CCDE" stroke-linecap="round" stroke-linejoin="round" />
  <path d="M52 26L53.3576 30.6424L58 32L53.3576 33.3576L52 38L50.6424 33.3576L46 32L50.6424 30.6424L52 26Z" stroke="#C2CCDE" stroke-linecap="round" stroke-linejoin="round" />
</svg>