<svg width="80" height="80" viewBox="0 0 80 80" fill="none" xmlns="http://www.w3.org/2000/svg">
  <path d="M49.0242 14.4358C43.3597 12.5214 37.2232 12.5214 31.5588 14.4358L30.5226 14.786C25.2023 16.5841 20.6721 20.1749 17.7068 24.944L17.5034 25.2712C14.4253 30.2217 13.3205 36.1484 14.408 41.8755C15.4616 47.4241 18.4999 52.399 22.955 55.8702L23.72 56.4662C24.5986 57.1508 25.0473 58.2719 24.784 59.3541L24.5935 60.1374C24.3954 60.9518 24.4167 61.8042 24.6553 62.6078C25.2527 64.62 27.102 66 29.201 66H51.3893C53.4834 66 55.3284 64.6233 55.9244 62.6158C56.1644 61.8073 56.184 60.9493 55.981 60.1306L55.7953 59.3821C55.5247 58.2907 55.9759 57.1573 56.8629 56.4662L57.628 55.8702C62.083 52.399 65.1213 47.4241 66.1749 41.8755C67.2624 36.1484 66.1576 30.2217 63.0795 25.2712L62.8761 24.944C59.9108 20.1749 55.3806 16.5841 50.0604 14.786L49.0242 14.4358Z" stroke="#C2CCDE" stroke-linecap="round" stroke-linejoin="round" />
  <path d="M25.8274 33C27.971 31.7624 30.612 31.7624 32.7556 33C34.8992 34.2376 36.2197 36.5248 36.2197 39C36.2197 41.4752 34.8992 43.7624 32.7556 45C30.612 46.2376 27.971 46.2376 25.8274 45C23.6838 43.7624 22.3633 41.4752 22.3633 39C22.3633 36.5248 23.6838 34.2376 25.8274 33Z" stroke="#C2CCDE" stroke-linecap="round" stroke-linejoin="round" />
  <path d="M47.8274 33C49.971 31.7624 52.612 31.7624 54.7556 33C56.8992 34.2376 58.2197 36.5248 58.2197 39C58.2197 41.4752 56.8992 43.7624 54.7556 45C52.612 46.2376 49.971 46.2376 47.8274 45C45.6838 43.7624 44.3633 41.4752 44.3633 39C44.3633 36.5248 45.6838 34.2376 47.8274 33Z" stroke="#C2CCDE" stroke-linecap="round" stroke-linejoin="round" />
  <path d="M35.291 58V66" stroke="#C2CCDE" stroke-linecap="round" stroke-linejoin="round" />
  <path d="M45.291 58V66" stroke="#C2CCDE" stroke-linecap="round" stroke-linejoin="round" />
</svg>