<svg width="80" height="80" viewBox="0 0 80 80" fill="none" xmlns="http://www.w3.org/2000/svg">
  <path d="M29.0544 17.2712C35.9714 13.9402 44.0288 13.9402 50.9457 17.2712C57.8627 20.6022 62.8863 26.9018 64.5947 34.3865C66.303 41.8713 64.5101 49.7266 59.7234 55.7289C54.9367 61.7312 47.6773 65.2272 40.0001 65.2272C32.3228 65.2272 25.0634 61.7312 20.2767 55.7289C15.49 49.7266 13.6971 41.8713 15.4054 34.3865C17.1138 26.9018 22.1375 20.6022 29.0544 17.2712Z" stroke="#C2CCDE" stroke-linecap="round" stroke-linejoin="round" />
  <path d="M33 34C33 35.1046 32.1046 36 31 36C29.8954 36 29 35.1046 29 34C29 32.8954 29.8954 32 31 32C32.1046 32 33 32.8954 33 34Z" stroke="#C2CCDE" stroke-linecap="round" stroke-linejoin="round" />
  <path d="M51 34C51 35.1046 50.1046 36 49 36C47.8954 36 47 35.1046 47 34C47 32.8954 47.8954 32 49 32C50.1046 32 51 32.8954 51 34Z" stroke="#C2CCDE" stroke-linecap="round" stroke-linejoin="round" />
  <path d="M29.3933 52.3934C30.7862 51.0005 32.4398 49.8956 34.2597 49.1418C36.0795 48.388 38.0301 48 39.9999 48C41.9697 48 43.9203 48.388 45.7402 49.1418C47.5601 49.8956 49.2136 51.0005 50.6065 52.3934" stroke="#C2CCDE" stroke-linecap="round" stroke-linejoin="round" />
</svg>