<svg width="80" height="80" viewBox="0 0 80 80" fill="none" xmlns="http://www.w3.org/2000/svg">
  <path d="M29.0544 17.2712C35.9714 13.9402 44.0288 13.9402 50.9457 17.2712C57.8627 20.6022 62.8863 26.9018 64.5947 34.3865C66.303 41.8713 64.5101 49.7266 59.7234 55.7289C54.9367 61.7312 47.6773 65.2272 40.0001 65.2272C32.3228 65.2272 25.0634 61.7312 20.2767 55.7289C15.49 49.7266 13.6971 41.8713 15.4054 34.3865C17.1138 26.9018 22.1375 20.6022 29.0544 17.2712Z" stroke="#C2CCDE" stroke-linecap="round" stroke-linejoin="round" />
  <path d="M28.2731 48.7814C27.448 48.5767 26.7908 49.4467 27.3209 50.1113C30.398 53.9699 35.0648 56.2173 40.0002 56.2173C44.9355 56.2173 49.6023 53.9699 52.6795 50.1113C53.2095 49.4466 52.5523 48.5766 51.7272 48.7813C48.2171 49.6523 44.5812 50.1051 40.8912 50.1051H39.109C35.419 50.1051 31.7832 49.6524 28.2731 48.7814Z" stroke="#C2CCDE" stroke-linecap="round" stroke-linejoin="round" />
  <path d="M34.9498 35.3431C34.2998 34.6003 33.5281 34.011 32.6788 33.609C31.8295 33.2069 30.9193 33 30 33C29.0808 33 28.1705 33.2069 27.3213 33.609C26.472 34.011 25.7003 34.6003 25.0503 35.3431" stroke="#C2CCDE" stroke-linecap="round" stroke-linejoin="round" />
  <path d="M54.9498 35.3431C54.2998 34.6003 53.5281 34.011 52.6788 33.609C51.8295 33.2069 50.9193 33 50 33C49.0808 33 48.1705 33.2069 47.3213 33.609C46.472 34.011 45.7003 34.6003 45.0503 35.3431" stroke="#C2CCDE" stroke-linecap="round" stroke-linejoin="round" />
</svg>