<svg width="80" height="80" viewBox="0 0 80 80" fill="none" xmlns="http://www.w3.org/2000/svg">
  <path d="M29.0542 17.2712C35.9711 13.9402 44.0285 13.9402 50.9455 17.2712C57.8624 20.6022 62.8861 26.9018 64.5944 34.3865C66.3028 41.8713 64.5099 49.7266 59.7232 55.7289C54.9365 61.7312 47.677 65.2272 39.9998 65.2272C32.3226 65.2272 25.0631 61.7312 20.2765 55.7289C15.4898 49.7266 13.6968 41.8713 15.4052 34.3865C17.1135 26.9018 22.1372 20.6022 29.0542 17.2712Z" stroke="#C2CCDE" stroke-linecap="round" stroke-linejoin="round" />
  <path d="M33 34C33 35.1046 32.1046 36 31 36C29.8954 36 29 35.1046 29 34C29 32.8954 29.8954 32 31 32C32.1046 32 33 32.8954 33 34Z" stroke="#C2CCDE" stroke-linecap="round" stroke-linejoin="round" />
  <path d="M51 34C51 35.1046 50.1046 36 49 36C47.8954 36 47 35.1046 47 34C47 32.8954 47.8954 32 49 32C50.1046 32 51 32.8954 51 34Z" stroke="#C2CCDE" stroke-linecap="round" stroke-linejoin="round" />
</svg>