<svg width="80" height="80" viewBox="0 0 80 80" fill="none" xmlns="http://www.w3.org/2000/svg">
  <path d="M29.0544 17.2712C35.9714 13.9402 44.0288 13.9402 50.9457 17.2712C57.8627 20.6022 62.8863 26.9018 64.5947 34.3865C66.303 41.8713 64.5101 49.7266 59.7234 55.7289C54.9367 61.7312 47.6773 65.2272 40.0001 65.2272C32.3228 65.2272 25.0634 61.7312 20.2767 55.7289C15.49 49.7266 13.6971 41.8713 15.4054 34.3865C17.1138 26.9018 22.1375 20.6022 29.0544 17.2712Z" stroke="#C2CCDE" stroke-linecap="round" stroke-linejoin="round" />
  <path d="M35.9498 34.6567C35.2998 35.3996 34.5281 35.9889 33.6788 36.3909C32.8295 36.793 31.9193 36.9999 31 36.9999C30.0808 36.9999 29.1705 36.793 28.3213 36.3909C27.472 35.9889 26.7003 35.3996 26.0503 34.6567" stroke="#C2CCDE" stroke-linecap="round" stroke-linejoin="round" />
  <path d="M53.9498 34.6567C53.2998 35.3996 52.5281 35.9889 51.6788 36.3909C50.8295 36.793 49.9193 36.9999 49 36.9999C48.0808 36.9999 47.1705 36.793 46.3213 36.3909C45.472 35.9889 44.7003 35.3996 44.0503 34.6567" stroke="#C2CCDE" stroke-linecap="round" stroke-linejoin="round" />
  <path d="M50.6065 50.6064C47.7935 53.4195 43.9782 54.9998 39.9999 54.9998C36.0217 54.9998 32.2064 53.4195 29.3933 50.6064" stroke="#C2CCDE" stroke-linecap="round" stroke-linejoin="round" />
</svg>