<svg width="80" height="80" viewBox="0 0 80 80" fill="none" xmlns="http://www.w3.org/2000/svg">
  <path d="M29.0542 17.2712C22.1372 20.6022 17.1135 26.9018 15.4052 34.3865C13.6968 41.8713 15.4898 49.7266 20.2765 55.7289C25.0631 61.7312 32.3226 65.2272 39.9998 65.2272C47.677 65.2272 54.9365 61.7312 59.7232 55.7289C64.5099 49.7266 66.3028 41.8713 64.5944 34.3865C62.8861 26.9018 57.8624 20.6022 50.9455 17.2712C44.0285 13.9402 35.9711 13.9402 29.0542 17.2712Z" stroke="#C2CCDE" stroke-linecap="round" stroke-linejoin="round" />
  <path d="M33 34C33 35.1046 32.1046 36 31 36C29.8954 36 29 35.1046 29 34C29 32.8954 29.8954 32 31 32C32.1046 32 33 32.8954 33 34Z" stroke="#C2CCDE" stroke-linecap="round" stroke-linejoin="round" />
  <path d="M51 34C51 35.1046 50.1046 36 49 36C47.8954 36 47 35.1046 47 34C47 32.8954 47.8954 32 49 32C50.1046 32 51 32.8954 51 34Z" stroke="#C2CCDE" stroke-linecap="round" stroke-linejoin="round" />
  <path d="M50.6068 50.6064C47.7937 53.4195 43.9784 54.9998 40.0002 54.9998C36.0219 54.9998 32.2066 53.4195 29.3936 50.6064" stroke="#C2CCDE" stroke-linecap="round" stroke-linejoin="round" />
</svg>