<svg width="80" height="80" viewBox="0 0 80 80" fill="none" xmlns="http://www.w3.org/2000/svg">
  <path d="M29.0544 17.2712C35.9714 13.9402 44.0288 13.9402 50.9457 17.2712C57.8627 20.6022 62.8863 26.9018 64.5947 34.3865C66.303 41.8713 64.5101 49.7266 59.7234 55.7289C54.9367 61.7312 47.6773 65.2272 40.0001 65.2272C32.3228 65.2272 25.0634 61.7312 20.2767 55.7289C15.49 49.7266 13.6971 41.8713 15.4054 34.3865C17.1138 26.9018 22.1375 20.6022 29.0544 17.2712Z" stroke="#C2CCDE" stroke-linecap="round" stroke-linejoin="round" />
  <path d="M27.838 54.2669C27.4234 54.4066 27.051 53.9716 27.2824 53.6002L28.8066 51.1538C31.2146 47.2888 35.4463 44.9395 40.0001 44.9395C44.5539 44.9395 48.7856 47.2888 51.1936 51.1538L52.7178 53.6002C52.9492 53.9716 52.5768 54.4067 52.1621 54.267C48.2965 52.9644 44.1956 52.2741 40 52.2741C35.8044 52.2741 31.7036 52.9644 27.838 54.2669Z" stroke="#C2CCDE" stroke-linecap="round" stroke-linejoin="round" />
  <path d="M27 29L35 34L27 39" stroke="#C2CCDE" stroke-linecap="round" stroke-linejoin="round" />
  <path d="M53 29L45 34L53 39" stroke="#C2CCDE" stroke-linecap="round" stroke-linejoin="round" />
</svg>