<svg width="80" height="80" viewBox="0 0 80 80" fill="none" xmlns="http://www.w3.org/2000/svg">
  <path d="M29.0544 17.2712C35.9714 13.9402 44.0288 13.9402 50.9457 17.2712C57.8627 20.6022 62.8863 26.9018 64.5947 34.3865C66.303 41.8713 64.5101 49.7266 59.7234 55.7289C54.9367 61.7312 47.6773 65.2272 40.0001 65.2272C32.3228 65.2272 25.0634 61.7312 20.2767 55.7289C15.49 49.7266 13.6971 41.8713 15.4054 34.3865C17.1138 26.9018 22.1375 20.6022 29.0544 17.2712Z" stroke="#C2CCDE" stroke-linecap="round" stroke-linejoin="round" />
  <path d="M33 34C33 35.1046 32.1046 36 31 36C29.8954 36 29 35.1046 29 34C29 32.8954 29.8954 32 31 32C32.1046 32 33 32.8954 33 34Z" stroke="#C2CCDE" stroke-linecap="round" stroke-linejoin="round" />
  <path d="M50.6065 50.6064C47.7935 53.4195 43.9782 54.9998 39.9999 54.9998C36.0217 54.9998 32.2064 53.4195 29.3933 50.6064" stroke="#C2CCDE" stroke-linecap="round" stroke-linejoin="round" />
  <path d="M53.9498 36.3431C53.2998 35.6003 52.5281 35.011 51.6788 34.609C50.8295 34.2069 49.9193 34 49 34C48.0808 34 47.1705 34.2069 46.3213 34.609C45.472 35.011 44.7003 35.6003 44.0503 36.3431" stroke="#C2CCDE" stroke-linecap="round" stroke-linejoin="round" />
</svg>